P3
1 2
255
50 50 50
255 255 50